Coordinates
version=1
nRows=49
nColumns=12
inDegrees=yes

Units are S.I. units (second, meters, Newtons, ...)
Angles are in degrees

endheader
time	SC_y	SC_z	SC_x	AC_y	AC_z	AC_x	GH_y	GH_z	GH_yy	EL_x	PS_y
       0.0              -21.46          20.74          36.45          55.04         -8.072         -2.309         -131.9          22.84         -110.3           89.3          32.34
   0.02901              -21.46          20.74          36.45          55.04         -8.071         -2.306         -131.9          22.84         -110.3          89.29          32.36
   0.05801              -21.47          20.73          36.44          55.04          -8.07         -2.304         -131.8          22.84         -110.2          89.28          32.37
   0.08702              -21.47          20.73          36.44          55.04         -8.069         -2.301         -131.8          22.84         -110.2          89.27          32.39
     0.116              -21.47          20.73          36.43          55.03         -8.068         -2.299         -131.7          22.83         -110.2          89.26          32.41
     0.145              -21.47          20.72          36.43          55.03         -8.067         -2.296         -131.7          22.83         -110.1          89.25          32.43
     0.174              -21.47          20.72          36.42          55.03         -8.066         -2.293         -131.6          22.83         -110.1          89.24          32.45
     0.203              -21.47          20.72          36.42          55.03         -8.064         -2.289         -131.5          22.82         -110.0          89.23          32.48
    0.2321              -21.47          20.71          36.41          55.03         -8.063         -2.286         -131.5          22.82         -110.0          89.21           32.5
    0.2611              -21.47          20.71          36.41          55.03         -8.061         -2.282         -131.4          22.81         -109.9           89.2          32.53
    0.2901              -21.47          20.71           36.4          55.03         -8.059         -2.278         -131.3          22.81         -109.8          89.18          32.56
    0.3191              -21.47           20.7          36.39          55.02         -8.057         -2.274         -131.2           22.8         -109.8          89.16          32.59
    0.3481              -21.48           20.7          36.39          55.02         -8.055         -2.269         -131.2           22.8         -109.7          89.15          32.62
    0.3771              -21.48          20.69          36.38          55.02         -8.053         -2.264         -131.1          22.79         -109.6          89.13          32.66
    0.4061              -21.48          20.69          36.37          55.02         -8.051         -2.258         -131.0          22.79         -109.5           89.1           32.7
    0.4351              -21.48          20.68          36.36          55.02         -8.048         -2.252         -130.8          22.78         -109.5          89.08          32.74
    0.4641              -21.48          20.68          36.35          55.01         -8.046         -2.246         -130.7          22.77         -109.4          89.06          32.79
    0.4931              -21.48          20.67          36.34          55.01         -8.043         -2.239         -130.6          22.76         -109.2          89.03          32.84
    0.5221              -21.49          20.66          36.33          55.01         -8.039         -2.231         -130.4          22.76         -109.1           89.0           32.9
    0.5511              -21.49          20.65          36.31           55.0         -8.036         -2.222         -130.3          22.75         -109.0          88.96          32.96
    0.5801              -21.49          20.64           36.3           55.0         -8.032         -2.213         -130.1          22.74         -108.9          88.93          33.02
    0.6091              -21.49          20.63          36.28           55.0         -8.027         -2.203         -129.9          22.72         -108.7          88.89           33.1
    0.6381               -21.5          20.62          36.26          54.99         -8.022         -2.191         -129.7          22.71         -108.5          88.84          33.18
    0.6671               -21.5          20.61          36.24          54.99         -8.017         -2.179         -129.5           22.7         -108.3          88.79          33.27
    0.6962              -21.51           20.6          36.22          54.98         -8.011         -2.165         -129.2          22.68         -108.1          88.74          33.37
    0.7252              -21.51          20.58           36.2          54.98         -8.005         -2.149         -128.9          22.66         -107.9          88.68          33.48
    0.7542              -21.52          20.56          36.17          54.97         -7.997         -2.132         -128.6          22.64         -107.6          88.61           33.6
    0.7832              -21.52          20.55          36.14          54.96         -7.989         -2.112         -128.2          22.62         -107.3          88.53          33.74
    0.8122              -21.53          20.52          36.11          54.95         -7.979          -2.09         -127.8           22.6         -107.0          88.45           33.9
    0.8412              -21.53           20.5          36.07          54.94         -7.969         -2.065         -127.3          22.57         -106.6          88.35          34.08
    0.8702              -21.54          20.47          36.02          54.93         -7.956         -2.036         -126.8          22.54         -106.2          88.24          34.28
    0.8992              -21.55          20.44          35.97          54.92         -7.942         -2.003         -126.1           22.5         -105.7          88.11          34.52
    0.9282              -21.56           20.4          35.91           54.9         -7.926         -1.965         -125.4          22.45         -105.1          87.96          34.79
    0.9572              -21.58          20.36          35.84          54.89         -7.907         -1.921         -124.6           22.4         -104.5          87.79           35.1
    0.9862              -21.59          20.31          35.76          54.87         -7.885         -1.869         -123.6          22.35         -103.7          87.59          35.47
     1.015              -21.61          20.25          35.66          54.84          -7.86         -1.808         -122.4          22.28         -102.8          87.35          35.91
     1.044              -21.63          20.18          35.55          54.81         -7.829         -1.736         -121.1          22.19         -101.7          87.07          36.42
     1.073              -21.65          20.09          35.41          54.78         -7.792         -1.649         -119.4           22.1         -100.4          86.73          37.04
     1.102              -21.68          19.99          35.25          54.74         -7.747         -1.543         -117.4          21.98         -98.78          86.32          37.79
     1.131              -21.72          19.86          35.04          54.69         -7.692         -1.415         -115.0          21.83         -96.85          85.81          38.71
      1.16              -21.77          19.71          34.79          54.62         -7.625         -1.256         -112.0          21.65         -94.46           85.2          39.84
     1.189              -21.82          19.51          34.48          54.55         -7.541         -1.059         -108.2          21.43         -91.48          84.42          41.25
     1.218               -21.9          19.27          34.09          54.45         -7.435        -0.8095         -103.5          21.15         -87.73          83.45          43.02
     1.247              -21.99          18.96          33.59          54.32         -7.301        -0.4928         -97.52          20.79         -82.97          82.22          45.28
     1.276               -22.1          18.56          32.96          54.16         -7.128        -0.0875         -89.84          20.33         -76.86          80.64          48.17
     1.305              -22.25          18.05          32.14          53.96         -6.907         0.4327         -79.99          19.74         -69.03          78.61          51.87
     1.334              -22.45           17.4           31.1           53.7         -6.625          1.097          -67.4          18.99         -59.03          76.02           56.6
     1.363              -22.69          16.59          29.78          53.37          -6.27          1.932         -51.58          18.04         -46.46          72.76          62.56
     1.392              -22.98          15.59          28.18          52.97         -5.837          2.951         -32.29          16.89         -31.13          68.79          69.81
